<svg version="1.1" viewBox="0.0 0.0 960.0 720.0" fill="none" stroke="none" stroke-linecap="square" stroke-miterlimit="10" xmlns:xlink="http://www.w3.org/1999/xlink" xmlns="http://www.w3.org/2000/svg"><clipPath id="p.0"><path d="m0 0l960.0 0l0 720.0l-960.0 0l0 -720.0z" clip-rule="nonzero"/></clipPath><g clip-path="url(#p.0)"><path fill="#000000" fill-opacity="0.0" d="m0 0l960.0 0l0 720.0l-960.0 0z" fill-rule="evenodd"/><path fill="#00b69b" d="m336.9449 206.14174l0 0c0 -7.4188843 7.092926 -13.433075 15.842529 -13.433075l0 0c8.749573 0 15.842499 6.0141907 15.842499 13.433075l0 0c0 7.418869 -7.092926 13.43306 -15.842499 13.43306l0 0c-8.749603 0 -15.842529 -6.0141907 -15.842529 -13.43306z" fill-rule="evenodd"/><path fill="#000000" fill-opacity="0.0" d="m337.92 183.36l31.685028 0l0 42.015747l-31.685028 0z" fill-rule="evenodd"/><path fill="#ffffff" d="m351.92 209.53l0 -4.03125l-3.953125 0l0 -1.15625l3.953125 0l0 -3.90625l1.1875 0l0 3.90625l3.96875 0l0 1.15625l-3.96875 0l0 4.03125l-1.1875 0z" fill-rule="nonzero"/></g></svg>